<?xml version="1.0" encoding="UTF-8"?>
<svg width="640px" height="90px" viewBox="0 0 1149 161" version="1.1" xmlns="http://www.w3.org/2000/svg" xmlns:xlink="http://www.w3.org/1999/xlink">
    <!-- Generator: Sketch 59.1 (86144) - https://sketch.com -->
    <title>Group 147</title>
    <desc>Created with Sketch.</desc>
    <g id="Page-8" stroke="none" stroke-width="1" fill="none" fill-rule="evenodd">
        <g id="Artboard" transform="translate(-54.000000, -252.000000)" fill="#6BC499">
            <g id="Group-147" transform="translate(54.000000, 252.000000)">
                <polygon id="Fill-127" points="27.9810113 45.405749 0 45.405749 0 5 106 5 106 45.405749 78.0189887 45.405749 78.0189887 159 27.9810113 159"></polygon>
                <path d="M178.885441,161 C169.315917,161 160.655231,159.784475 152.91102,157.353425 C145.166808,154.922376 138.552916,151.268156 133.084616,146.406057 C127.623954,141.543958 123.400533,135.382241 120.444902,127.92855 C117.481634,120.482505 116,111.736842 116,101.706851 L116,5 L164.527337,5 L164.527337,99.6503969 C164.527337,104.971185 165.627106,109.038224 167.834283,111.851514 C170.033822,114.664804 173.714996,116.07145 178.885441,116.07145 C184.048248,116.07145 187.729422,114.664804 189.936598,111.851514 C192.136138,109.038224 193.235907,104.971185 193.235907,99.6503969 L193.235907,5 L242,5 L242,101.706851 C242,111.736842 240.518366,120.482505 237.555098,127.92855 C234.591829,135.382241 230.337859,141.543958 224.793187,146.406057 C219.248515,151.268156 212.604073,154.922376 204.859862,157.353425 C197.108013,159.784475 188.454964,161 178.885441,161" id="Fill-129"></path>
                <polygon id="Fill-131" points="256 5 295.778449 5 335.117441 64.1111111 374.221551 5 414 5 414 159 365.856711 159 365.856711 103.58817 335.117441 149.759536 304.143289 103.58817 304.143289 159 256 159"></polygon>
                <polygon id="Fill-133" points="581.122666 5 606.893006 71.9585406 632.877334 5 686 5 626.725162 159 587.28248 159 528 5"></polygon>
                <polygon id="Fill-135" points="517.877334 159 492.106994 92.0414594 466.122666 159 413 159 472.274838 5 511.71752 5 571 159"></polygon>
                <polygon id="Fill-137" points="686 159 737 159 737 5 686 5"></polygon>
                <path d="M796.207421,115.132677 C807.761949,115.132677 816.691152,112.400643 823.002774,106.936577 C829.322141,101.480249 832.481824,93.1216203 832.481824,81.8839079 C832.481824,70.6539351 829.322141,62.3340034 823.002774,56.9473314 C816.691152,51.5606594 807.761949,48.8673233 796.207421,48.8673233 L796.207421,115.132677 Z M747,159 L747,5 L789.740912,5 C804.215049,5 817.11709,6.6175495 828.439288,9.84490904 C839.753742,13.080008 849.310235,17.9249171 857.085534,24.3951151 C864.860833,30.8575736 870.792984,38.9066238 874.874241,48.5190471 C878.955499,58.13921 881,69.2685697 881,81.8839079 C881,94.5069856 878.955499,105.628606 874.874241,115.248769 C870.792984,124.868932 864.860833,132.910242 857.085534,139.38044 C849.310235,145.842899 839.753742,150.734245 828.439288,154.038999 C817.11709,157.351493 804.215049,159 789.740912,159 L747,159 Z" id="Fill-139"></path>
                <polygon id="Fill-140" points="892 5 981.406185 5 981.406185 45.405749 940.455041 45.405749 940.455041 62.4936429 980.727478 62.4936429 980.727478 100.817579 940.455041 100.817579 940.455041 118.594251 983 118.594251 983 159 892 159"></polygon>
                <path d="M1046.06115,117.76445 L1046.06115,44.7003783 L1109.32629,81.2362687 L1046.06115,117.76445 Z M1142.67811,49.1950869 C1138.44553,39.4038692 1132.69415,30.8461907 1125.42398,23.5760188 C1118.12297,16.2750084 1109.58842,10.5236317 1099.77407,6.32188862 C1089.95973,2.08930709 1079.55174,0 1068.49615,0 C1057.44826,0 1047.03256,2.08930709 1037.21822,6.32188862 C1027.40387,10.5236317 1018.84619,16.2750084 1011.57602,23.5760188 C1011.52976,23.6222765 1011.45266,23.6916631 1011.40641,23.7379208 C1011.36015,23.7918881 1011.31389,23.8381459 1011.24451,23.9075324 C1004.11311,31.1083178 998.477374,39.5426423 994.321889,49.1950869 C990.112436,59.0094335 988,69.4482593 988,80.4961452 C988,91.5286118 990.112436,101.959728 994.321889,111.774075 C998.546761,121.588421 1004.27501,130.122971 1011.57602,137.416272 C1018.84619,144.694153 1027.40387,150.44553 1037.21822,154.654983 C1047.03256,158.879854 1057.44826,161 1068.49615,161 C1070.90155,161 1073.27611,160.899775 1075.60442,160.691615 C1084.03874,159.974621 1092.09529,157.9547 1099.77407,154.654983 C1109.58842,150.44553 1118.12297,144.694153 1125.42398,137.416272 C1131.17536,131.641766 1135.97074,125.111718 1139.80242,117.76445 C1140.84322,115.837044 1141.79921,113.840253 1142.67811,111.774075 C1146.87985,101.959728 1149,91.5286118 1149,80.4961452 C1149,69.4482593 1146.87985,59.0094335 1142.67811,49.1950869 L1142.67811,49.1950869 Z" id="Fill-141"></path>
            </g>
        </g>
    </g>
</svg>